<svg width="20" height="20" viewBox="0 0 20 20" fill="none" xmlns="http://www.w3.org/2000/svg">
<path d="M5.80005 1.66667C6.14799 1.66667 6.43005 1.92497 6.43005 2.2436V3.40736C6.98886 3.39744 7.61525 3.39744 8.32002 3.39744H11.68C12.3848 3.39744 13.0112 3.39744 13.57 3.40736V2.2436C13.57 1.92497 13.852 1.66667 14.1999 1.66667C14.5479 1.66667 14.8299 1.92497 14.8299 2.2436V3.45841C16.039 3.54706 16.8327 3.76466 17.4158 4.29866C17.9989 4.83265 18.2365 5.5595 18.3333 6.66667V7.50001H1.66667V6.66667C1.76349 5.5595 2.00109 4.83265 2.5842 4.29866C3.16733 3.76466 3.96103 3.54706 5.17005 3.45841V2.2436C5.17005 1.92497 5.45211 1.66667 5.80005 1.66667Z" fill="#549CAC"/>
<path opacity="0.5" d="M18.3333 11.6667V10C18.3333 9.30083 18.3227 8.05439 18.312 7.5H1.67154C1.66079 8.05439 1.67136 9.30083 1.67136 10V11.6667C1.67136 14.8093 1.67136 16.3807 2.64739 17.357C3.62343 18.3333 5.19433 18.3333 8.33616 18.3333H11.6686C14.8103 18.3333 16.3812 18.3333 17.3573 17.357C18.3333 16.3807 18.3333 14.8093 18.3333 11.6667Z" fill="#019295"/>
<path fill-rule="evenodd" clip-rule="evenodd" d="M11.6667 10.2083C10.8612 10.2083 10.2083 10.8612 10.2083 11.6667V13.3333C10.2083 14.1387 10.8612 14.7917 11.6667 14.7917C12.4721 14.7917 13.125 14.1387 13.125 13.3333V11.6667C13.125 10.8612 12.4721 10.2083 11.6667 10.2083ZM11.6667 11.4583C11.5516 11.4583 11.4583 11.5517 11.4583 11.6667V13.3333C11.4583 13.4484 11.5516 13.5417 11.6667 13.5417C11.7817 13.5417 11.875 13.4484 11.875 13.3333V11.6667C11.875 11.5517 11.7817 11.4583 11.6667 11.4583Z" fill="#1C274C"/>
<path d="M9.375 10.8333C9.375 10.5806 9.22275 10.3527 8.98916 10.2559C8.75566 10.1592 8.48683 10.2127 8.30806 10.3914L7.05806 11.6414C6.81398 11.8855 6.81398 12.2813 7.05806 12.5253C7.30213 12.7693 7.69786 12.7693 7.94194 12.5253L8.125 12.3423V14.1667C8.125 14.5118 8.40483 14.7917 8.75 14.7917C9.09516 14.7917 9.375 14.5118 9.375 14.1667V10.8333Z" fill="#1C274C"/>
</svg>
