<svg width="22" height="22" viewBox="0 0 22 22" fill="none" xmlns="http://www.w3.org/2000/svg">
<mask id="mask0_1_3936" style="mask-type:luminance" maskUnits="userSpaceOnUse" x="0" y="0" width="22" height="22">
<path d="M0.463562 0.166626H21.4271V21.1302H0.463562V0.166626Z" fill="white"/>
</mask>
<g mask="url(#mask0_1_3936)">
<path d="M17.4115 6.80204L17.125 7.0885L14.7865 4.75517L15.0781 4.4635C15.3646 4.17704 15.8386 4.17704 16.125 4.4635L17.4115 5.74996C17.7031 6.04163 17.7031 6.51038 17.4115 6.80204ZM8.49481 15.7187L6.16148 13.3854L14.5521 4.98954L16.8854 7.32808L8.49481 15.7187ZM4.62502 17.2552L5.83335 13.7083L8.1719 16.0416L4.62502 17.2552ZM11.0886 0.166626C5.21877 0.166626 0.463562 4.92183 0.463562 10.7916C0.463562 16.6562 5.21877 21.4166 11.0886 21.4166C16.9531 21.4166 21.7136 16.6562 21.7136 10.7916C21.7136 4.92183 16.9531 0.166626 11.0886 0.166626Z" fill="#FF1723"/>
</g>
</svg>
