<svg width="20" height="20" viewBox="0 0 20 20" fill="none" xmlns="http://www.w3.org/2000/svg">
    <path fill-rule="evenodd" clip-rule="evenodd"
        d="M4.97334 3.33333H15.0267C15.3922 3.33332 15.7076 3.33332 15.9687 3.35112C16.2435 3.36988 16.5184 3.41113 16.7901 3.52363C17.4026 3.77737 17.8893 4.26406 18.143 4.87662C18.2555 5.14823 18.2967 5.42316 18.3156 5.69802C18.3333 5.95907 18.3333 6.27447 18.3333 6.64001V13.36C18.3333 13.7255 18.3333 14.0409 18.3156 14.302C18.2967 14.5768 18.2555 14.8517 18.143 15.1234C17.8893 15.7359 17.4026 16.2227 16.7901 16.4763C16.5184 16.5888 16.2435 16.6301 15.9687 16.6489C15.7076 16.6667 15.3922 16.6667 15.0267 16.6667H4.97333C4.60779 16.6667 4.29239 16.6667 4.03134 16.6489C3.75648 16.6301 3.48156 16.5888 3.20995 16.4763C2.59738 16.2227 2.11069 15.7359 1.85696 15.1234C1.74446 14.8517 1.70321 14.5768 1.68445 14.302C1.66664 14.0409 1.66665 13.7255 1.66666 13.36V6.64002C1.66665 6.27447 1.66664 5.95907 1.68445 5.69802C1.70321 5.42316 1.74446 5.14823 1.85696 4.87662C2.11069 4.26406 2.59738 3.77737 3.20995 3.52363C3.48156 3.41113 3.75648 3.36988 4.03134 3.35112C4.29239 3.33332 4.6078 3.33332 4.97334 3.33333ZM3.59786 5.23147C3.90094 4.88512 4.42741 4.85002 4.77377 5.15308L9.45124 9.24583C9.76541 9.52075 10.2346 9.52075 10.5487 9.24583L15.2262 5.15308C15.5726 4.85002 16.0991 4.88512 16.4021 5.23147C16.7052 5.57784 16.6701 6.10431 16.3237 6.40737L11.6462 10.5002C10.7037 11.3249 9.29632 11.3249 8.35374 10.5002L3.67627 6.40737C3.3299 6.10431 3.2948 5.57784 3.59786 5.23147Z"
        fill="#42469d" />
</svg>
