<svg width="12" height="20" viewBox="0 0 12 20" fill="none" xmlns="http://www.w3.org/2000/svg">
    <path
        d="M1.46507 20H10.5349C11.2797 20 11.8837 19.3962 11.8837 18.6508V1.34916C11.8837 0.604095 11.28 1.52588e-05 10.5349 1.52588e-05H1.46507C0.719689 1.52588e-05 0.116241 0.604095 0.116241 1.34916V18.6508C0.116277 19.3962 0.719689 20 1.46507 20ZM5.97769 19.1764C5.50817 19.1764 5.12825 18.7968 5.12825 18.3276C5.12825 17.8588 5.50817 17.4789 5.97769 17.4789C6.44556 17.4789 6.82646 17.8587 6.82646 18.3276C6.82646 18.7968 6.44556 19.1764 5.97769 19.1764ZM1.93659 2.59729C1.93659 2.39222 2.1027 2.22611 2.30812 2.22611H9.69152C9.89691 2.22611 10.0631 2.39222 10.0631 2.59729V15.917C10.0631 16.122 9.89691 16.2885 9.69152 16.2885H2.30812C2.1027 16.2885 1.93659 16.122 1.93659 15.917V2.59729Z"
        fill="#42469d" />
    <path
        d="M5.99983 9.4739C6.99826 9.4739 7.80772 8.66409 7.80772 7.66665C7.80772 6.66753 6.99826 5.85771 5.99983 5.85771C5.00071 5.85771 4.19223 6.66788 4.19223 7.66665C4.19223 8.66377 5.00106 9.4739 5.99983 9.4739Z"
        fill="#42469d" />
    <path
        d="M5.86558 12.2964C7.24961 12.2964 7.99197 12.0433 8.34981 11.8581C8.51926 11.7705 8.64143 11.5158 8.62865 11.3292C8.59745 10.8798 8.46188 10.0612 7.91549 9.36384C7.83295 9.25848 7.68224 9.14301 7.53628 9.06412C7.15836 9.48734 6.61061 9.75548 5.99983 9.75548C5.38968 9.75548 4.84196 9.48766 4.4644 9.06482C4.32176 9.14603 4.1751 9.26115 4.09522 9.36584C3.83578 9.70449 3.43572 10.3606 3.37163 11.2442C3.35819 11.4305 3.44713 11.7154 3.60285 11.8245C3.89857 12.0316 4.53691 12.2964 5.86558 12.2964Z"
        fill="#42469d" />
</svg>
