<svg width="12" height="16" viewBox="0 0 12 16" fill="none" xmlns="http://www.w3.org/2000/svg">
    <path
        d="M5.99993 0.5C3.97148 0.5 2.32709 2.13097 2.32709 4.14286C2.32709 6.15475 3.97148 7.78575 5.99993 7.78575C8.02835 7.78575 9.67276 6.15475 9.67276 4.14286C9.67276 2.13097 8.02835 0.5 5.99993 0.5Z"
        fill="#42469d" />
    <path
        d="M8.16749 9.40642C6.73157 9.17908 5.26841 9.17908 3.83252 9.40642L3.67861 9.43075C1.65538 9.751 0.166656 11.4819 0.166656 13.514C0.166656 14.6108 1.06312 15.5 2.16897 15.5H9.83099C10.9368 15.5 11.8333 14.6108 11.8333 13.514C11.8333 11.4819 10.3446 9.751 8.32141 9.43075L8.16749 9.40642Z"
        fill="#42469d" />
</svg>
